<svg width="180" height="180" viewBox="0 0 180 180" fill="none" xmlns="http://www.w3.org/2000/svg">
<g clip-path="url(#clip0_9_4299)">
<rect width="180" height="180" rx="90" fill="white"/>
<circle cx="90" cy="90" r="90" fill="#0043DC"/>
<path d="M128.394 69.5324C128.394 69.5324 134.766 68.7584 135.342 74.8244C135.918 80.8904 133.884 85.5524 130.104 87.5684C130.104 87.5684 129.294 87.9644 127.44 88.2884L128.394 69.5504V69.5324Z" fill="#FFB69F"/>
<path d="M56.3037 69.5324C56.3037 69.5324 49.9317 68.7584 49.3557 74.8244C48.7797 80.8904 50.8137 85.5524 54.5937 87.5684C54.5937 87.5684 55.4037 87.9644 57.2577 88.2884L56.3037 69.5504V69.5324Z" fill="#FFB69F"/>
<path d="M5.40002 188.515C5.40002 188.515 5.40002 163.063 20.304 158.041C35.208 153.019 68.886 133.741 68.886 133.741H91.674V188.515H5.40002V188.515Z" fill="#FF7900"/>
<path d="M176.543 188.515C176.543 188.515 176.543 163.063 161.639 158.041C146.735 153.019 113.417 133.741 113.417 133.741H90.2689V188.515H176.543V188.515Z" fill="#FF7900"/>
<path d="M74.5561 116.135L72.4501 133.739H109.494L107.19 116.135H74.5561Z" fill="#FFB69F"/>
<path d="M90.9721 144.272C101.201 144.272 109.494 140.669 109.494 136.226C109.494 131.782 101.201 128.18 90.9721 128.18C80.7427 128.18 72.4501 131.782 72.4501 136.226C72.4501 140.669 80.7427 144.272 90.9721 144.272Z" fill="#FFB69F"/>
<path d="M73.1514 127.907C73.1514 127.907 98.4414 130.229 107.351 119.141V106.397L75.2934 109.475L73.1514 127.907V127.907Z" fill="#FF9988"/>
<path d="M92.4843 121.248C112.874 121.248 129.402 100.117 129.402 74.0518C129.402 47.9862 112.874 26.8558 92.4843 26.8558C72.095 26.8558 55.5663 47.9862 55.5663 74.0518C55.5663 100.117 72.095 121.248 92.4843 121.248Z" fill="#FFB69F"/>
<path d="M124.722 36.3614C124.722 36.3614 124.758 36.2714 124.722 36.2174C123.498 33.2834 122.004 18.5414 97.9921 16.3094C91.8361 15.7334 83.0341 16.7594 77.4541 19.4234C69.8041 23.0594 61.2541 25.1474 53.6941 25.1294C53.3701 25.1294 53.2441 25.5614 53.5321 25.7234L59.4361 30.4214C59.6701 30.5474 59.6521 30.8894 59.4001 30.9974L51.9841 33.2474C51.7141 33.3554 51.7141 33.7514 51.9841 33.8414C53.1901 34.2374 56.2501 35.5874 59.0221 36.5414C54.4861 44.5694 55.5301 56.1074 55.5301 69.9674C55.5301 69.9674 55.3861 84.3314 60.2281 100.801C65.5201 118.801 77.1301 126.523 93.4921 126.577C110.916 126.649 120.006 111.709 122.436 106.399C126.144 98.2634 129.33 83.1434 129.348 74.0534C129.348 74.0534 136.044 51.0854 124.686 36.3614H124.722ZM109.926 103.051C106.326 104.887 108.144 95.3294 100.98 94.9334C98.5861 94.7894 90.4501 94.2314 83.6101 94.8074C78.4081 95.2574 77.1481 99.9374 76.9141 102.313C76.8061 103.339 76.4461 103.807 75.4741 103.447C73.3141 102.655 68.7241 100.099 66.5641 97.7234C64.3321 95.2754 60.3001 88.6694 59.9221 74.7194L60.3181 54.7934C60.3181 54.7934 68.3281 48.0794 69.7141 43.3094C69.7141 43.3094 105.498 49.0334 115.866 43.3094C115.866 43.3094 120.204 51.6074 124.938 54.1094C126.396 54.8654 126.144 64.3334 126.018 70.8674C125.892 71.7494 125.784 72.7574 125.73 73.9454C124.776 92.6114 113.49 101.233 109.908 103.069L109.926 103.051Z" fill="#B54D4D"/>
<path d="M109.927 77.8303C111.13 77.8303 112.105 76.1379 112.105 74.0503C112.105 71.9626 111.13 70.2703 109.927 70.2703C108.724 70.2703 107.749 71.9626 107.749 74.0503C107.749 76.1379 108.724 77.8303 109.927 77.8303Z" fill="#441D39"/>
<path d="M77.256 77.0568C78.4589 77.0568 79.434 75.3645 79.434 73.2768C79.434 71.1892 78.4589 69.4968 77.256 69.4968C76.0531 69.4968 75.078 71.1892 75.078 73.2768C75.078 75.3645 76.0531 77.0568 77.256 77.0568Z" fill="#441D39"/>
<path d="M95.0223 91.0441H91.5843C90.0543 91.0441 88.7043 90.4501 87.9843 89.4601C87.4623 88.7581 87.3183 87.9301 87.5703 87.1201C88.3443 84.6361 89.3523 75.3661 89.3523 75.2761C89.4063 74.7721 89.8383 74.4301 90.3423 74.4841C90.8283 74.5381 91.1883 74.9881 91.1343 75.4741C91.0983 75.8701 90.0903 84.9961 89.2803 87.6601C89.2083 87.9301 89.2443 88.1641 89.4243 88.4161C89.8023 88.9201 90.6483 89.2621 91.5843 89.2621H95.0223C95.5263 89.2621 95.9223 89.6581 95.9223 90.1621C95.9223 90.6661 95.5263 91.0621 95.0223 91.0621V91.0441Z" fill="#FF9988"/>
<path d="M111.833 83.7534C115.303 83.7534 118.115 83.1087 118.115 82.3134C118.115 81.5181 115.303 80.8734 111.833 80.8734C108.364 80.8734 105.551 81.5181 105.551 82.3134C105.551 83.1087 108.364 83.7534 111.833 83.7534Z" fill="#FF9988"/>
<path d="M75.1671 83.7534C78.6366 83.7534 81.4491 83.1087 81.4491 82.3134C81.4491 81.5181 78.6366 80.8734 75.1671 80.8734C71.6977 80.8734 68.8851 81.5181 68.8851 82.3134C68.8851 83.1087 71.6977 83.7534 75.1671 83.7534Z" fill="#FF9988"/>
<path d="M117.557 65.2665C111.563 63.5025 106.973 64.6185 104.183 64.9785C102.995 65.1225 102.743 63.6645 102.743 63.6645C102.509 62.6745 103.841 61.9905 104.777 61.8105C107.927 61.2345 111.959 60.9465 117.935 63.0165C119.087 63.4125 119.159 64.3845 119.159 64.3845C119.033 65.4645 118.349 65.4825 117.557 65.2485V65.2665Z" fill="#B54D4D"/>
<path d="M69.2993 65.377C75.2573 63.505 79.8653 64.549 82.6553 64.855C83.8433 64.981 84.0773 63.523 84.0773 63.523C84.2933 62.533 82.9433 61.867 82.0073 61.705C78.8393 61.183 74.8073 60.949 68.8853 63.127C67.7333 63.541 67.6793 64.513 67.6793 64.513C67.8233 65.593 68.5073 65.593 69.2813 65.359L69.2993 65.377Z" fill="#B54D4D"/>
<path d="M92.2862 105.662C88.0382 105.662 84.6542 104.762 84.4382 104.708C83.9522 104.582 83.6822 104.078 83.8082 103.61C83.9342 103.142 84.4382 102.854 84.9062 102.98C84.9962 102.998 93.2762 105.194 99.9542 102.584C100.422 102.404 100.944 102.638 101.124 103.088C101.304 103.556 101.07 104.078 100.62 104.258C97.8662 105.338 94.9142 105.68 92.3042 105.68L92.2862 105.662Z" fill="#9B3D3D"/>
<path d="M73.242 127.997L87.57 138.221L80.64 154.817L62.1 137.555L73.242 127.997Z" fill="#FFA242"/>
<path d="M87.57 138.221L88.434 144.359L85.176 143.945L87.57 138.221Z" fill="#FF7900"/>
<path d="M95.7424 137.898L94.4824 144.36L98.0104 143.766L95.7424 137.898Z" fill="#FF7900"/>
<path d="M95.7424 137.898L108.864 128.268L121.158 138.132L102.87 156.402L95.7424 137.898Z" fill="#FFA242"/>
<path d="M94.4638 146.718H88.4338V188.496H94.4638V146.718Z" fill="white"/>
<path d="M88.3077 143.498L88.4337 147.17C88.4337 147.17 91.2417 148.394 94.4637 147.17L94.5537 143.84L88.2897 143.48L88.3077 143.498Z" fill="#FFB69F"/>
<path d="M94.4638 155.538H88.4338V157.338H94.4638V155.538Z" fill="#0043DC"/>
<path d="M94.4638 163.656H88.4338V165.456H94.4638V163.656Z" fill="#0043DC"/>
<path d="M94.4638 171.773H88.4338V173.573H94.4638V171.773Z" fill="#0043DC"/>
<path d="M94.4638 179.891H88.4338V181.691H94.4638V179.891Z" fill="#0043DC"/>
<path d="M99.5944 165.404C100.469 165.404 101.178 164.694 101.178 163.82C101.178 162.945 100.469 162.236 99.5944 162.236C98.7196 162.236 98.0104 162.945 98.0104 163.82C98.0104 164.694 98.7196 165.404 99.5944 165.404Z" fill="#FFA242"/>
<path d="M99.5944 183.077C100.469 183.077 101.178 182.367 101.178 181.493C101.178 180.618 100.469 179.909 99.5944 179.909C98.7196 179.909 98.0104 180.618 98.0104 181.493C98.0104 182.367 98.7196 183.077 99.5944 183.077Z" fill="#FFA242"/>
</g>
<defs>
<clipPath id="clip0_9_4299">
<rect width="180" height="180" rx="90" fill="white"/>
</clipPath>
</defs>
</svg>
