<svg width="1750" height="380" viewBox="0 0 1750 380" fill="none" xmlns="http://www.w3.org/2000/svg">
<path d="M5.2 50.4C6.93334 48.9333 8.73334 48 10.6 47.6C12.4667 47.2 14.2667 47 16 47H46.2C48.7333 47 50.8 47.4 52.4 48.2C54.1333 49 55.5333 50.1333 56.6 51.6C57.6667 52.9333 58.5333 54.5333 59.2 56.4C60 58.1333 60.7333 60.0667 61.4 62.2L69.8 86.4C73.5333 81.6 77.2667 76.7333 81 71.8C84.8667 66.7333 89.4 62.2 94.6 58.2C99.8 54.0667 106 50.6667 113.2 48C120.4 45.3333 129.2 44 139.6 44C157.867 44 174.667 47.4 190 54.2C205.467 60.8667 218.733 70.1333 229.8 82C241 93.7333 249.733 107.6 256 123.6C262.267 139.467 265.4 156.667 265.4 175.2C265.4 193.6 262.267 210.8 256 226.8C249.733 242.8 241 256.733 229.8 268.6C218.733 280.333 205.467 289.6 190 296.4C174.667 303.2 157.867 306.6 139.6 306.6C130.933 306.6 123.467 305.533 117.2 303.4C110.933 301.4 105.333 298.733 100.4 295.4C95.6 292.067 91.3333 288.4 87.6 284.4C83.8667 280.4 80.2 276.4 76.6 272.4V365.6C76.6 369.6 75.4 373 73 375.8C70.6 378.6 66.8667 380 61.8 380H16C14.4 380 12.6667 379.667 10.8 379C8.93334 378.333 7.2 377.4 5.6 376.2C4 375 2.66667 373.467 1.6 371.6C0.533334 369.867 9.53674e-07 367.867 9.53674e-07 365.6V61.8C9.53674e-07 59.1333 0.466668 56.9333 1.4 55.2C2.46667 53.4666 3.73333 51.8667 5.2 50.4ZM192 175.2C192 166.667 190.6 158.6 187.8 151C185 143.267 181.067 136.533 176 130.8C170.933 125.067 164.867 120.533 157.8 117.2C150.733 113.867 142.933 112.2 134.4 112.2C126 112.2 118 113.8 110.4 117C102.933 120.067 96.3333 124.333 90.6 129.8C85 135.133 80.4 141.467 76.8 148.8C73.3333 156.133 71.4 163.933 71 172.2V175.2C71 184 72.6667 192.267 76 200C79.3333 207.733 83.8667 214.467 89.6 220.2C95.3333 225.8 102.067 230.267 109.8 233.6C117.533 236.933 125.733 238.6 134.4 238.6C142.933 238.6 150.733 236.933 157.8 233.6C164.867 230.267 170.933 225.8 176 220.2C181.067 214.467 185 207.733 187.8 200C190.6 192.267 192 184 192 175.2ZM566.869 287.2C566.869 289.467 566.469 291.667 565.669 293.8C564.869 295.8 563.535 297.4 561.669 298.6C560.202 300.067 558.469 301 556.469 301.4C554.469 301.8 552.735 302 551.269 302H511.869C509.069 302 506.802 301.667 505.069 301C503.335 300.2 501.935 299.133 500.869 297.8C499.802 296.467 498.869 294.867 498.069 293C497.402 291 496.669 288.867 495.869 286.6L493.269 277.6C489.669 281.2 485.535 284.733 480.869 288.2C476.335 291.667 471.269 294.8 465.669 297.6C460.202 300.267 454.269 302.4 447.869 304C441.602 305.733 435.069 306.6 428.269 306.6C416.135 306.6 404.469 305.067 393.269 302C382.202 298.933 371.802 294.6 362.069 289C352.469 283.267 343.735 276.467 335.869 268.6C328.002 260.6 321.202 251.733 315.469 242C309.869 232.267 305.535 221.8 302.469 210.6C299.402 199.267 297.869 187.467 297.869 175.2C297.869 156.667 301.269 139.467 308.069 123.6C314.869 107.6 324.135 93.7333 335.869 82C347.602 70.1333 361.402 60.8667 377.269 54.2C393.135 47.4 410.135 44 428.269 44C436.535 44 444.202 44.9333 451.269 46.8C458.469 48.6667 465.002 51.2 470.869 54.4C476.869 57.6 482.269 61.4666 487.069 66C491.869 70.4 496.069 75.2 499.669 80.4L505.469 62.2C506.802 58.8667 507.869 56.2 508.669 54.2C509.602 52.0666 510.535 50.5333 511.469 49.6C512.535 48.5333 513.802 47.8666 515.269 47.6C516.735 47.2 518.802 47 521.469 47H551.269C552.735 47 554.469 47.2 556.469 47.6C558.469 48 560.202 48.9333 561.669 50.4C563.535 51.8667 564.869 53.5333 565.669 55.4C566.469 57.2667 566.869 59.4 566.869 61.8V287.2ZM369.869 175.2C369.869 184 371.202 192.267 373.869 200C376.669 207.6 380.602 214.2 385.669 219.8C390.735 225.4 396.802 229.867 403.869 233.2C411.069 236.4 419.002 238 427.669 238C436.602 238 444.869 236.4 452.469 233.2C460.202 229.867 466.869 225.4 472.469 219.8C478.202 214.2 482.669 207.6 485.869 200C489.069 192.267 490.669 184 490.669 175.2C490.669 166.667 489.069 158.533 485.869 150.8C482.669 143.067 478.202 136.267 472.469 130.4C466.869 124.533 460.202 119.933 452.469 116.6C444.869 113.133 436.602 111.4 427.669 111.4C419.002 111.4 411.069 113.133 403.869 116.6C396.802 119.933 390.735 124.533 385.669 130.4C380.602 136.267 376.669 143.067 373.869 150.8C371.202 158.533 369.869 166.667 369.869 175.2ZM614.844 62.8C614.844 60.2667 615.31 58.0667 616.244 56.2C617.177 54.3333 618.377 52.8 619.844 51.6C621.444 50.4 623.177 49.5333 625.044 49C627.044 48.3333 628.977 48 630.844 48H661.044C664.377 48 667.044 49 669.044 51C671.044 53 672.71 55.5333 674.044 58.6C675.51 61.6667 676.777 65.0667 677.844 68.8C678.91 72.5333 680.177 76.1333 681.644 79.6C685.644 75.2 689.577 70.8667 693.444 66.6C697.444 62.3333 701.71 58.5333 706.244 55.2C710.777 51.8667 715.71 49.2 721.044 47.2C726.51 45.0667 732.71 44 739.644 44C746.844 44 753.244 44.5333 758.844 45.6C764.577 46.6667 769.977 48.2667 775.044 50.4C780.11 52.4 785.11 55 790.044 58.2C795.11 61.4 800.577 65.1333 806.444 69.4C812.177 72.7333 815.044 76.6667 815.044 81.2C815.044 84.1333 813.91 87.5333 811.644 91.4L793.444 122.4C789.844 127.6 785.377 130.2 780.044 130.2C777.377 130.2 774.377 129.467 771.044 128C765.31 122.4 759.444 118.267 753.444 115.6C747.577 112.8 740.844 111.4 733.244 111.4C728.044 111.4 723.444 112.133 719.444 113.6C715.577 115.067 712.044 117.133 708.844 119.8C705.644 122.467 702.644 125.667 699.844 129.4C697.044 133.133 694.244 137.267 691.444 141.8V286.6C691.444 291.667 690.177 295.533 687.644 298.2C685.244 300.733 681.177 302 675.444 302H630.444C620.044 302 614.844 296.867 614.844 286.6V62.8ZM1100.46 287.2C1100.46 289.467 1100.06 291.667 1099.26 293.8C1098.46 295.8 1097.13 297.4 1095.26 298.6C1093.8 300.067 1092.06 301 1090.06 301.4C1088.06 301.8 1086.33 302 1084.86 302H1045.46C1042.66 302 1040.4 301.667 1038.66 301C1036.93 300.2 1035.53 299.133 1034.46 297.8C1033.4 296.467 1032.46 294.867 1031.66 293C1031 291 1030.26 288.867 1029.46 286.6L1026.86 277.6C1023.26 281.2 1019.13 284.733 1014.46 288.2C1009.93 291.667 1004.86 294.8 999.263 297.6C993.796 300.267 987.863 302.4 981.463 304C975.196 305.733 968.663 306.6 961.863 306.6C949.729 306.6 938.063 305.067 926.863 302C915.796 298.933 905.396 294.6 895.663 289C886.063 283.267 877.329 276.467 869.463 268.6C861.596 260.6 854.796 251.733 849.063 242C843.463 232.267 839.129 221.8 836.063 210.6C832.996 199.267 831.463 187.467 831.463 175.2C831.463 156.667 834.863 139.467 841.663 123.6C848.463 107.6 857.729 93.7333 869.463 82C881.196 70.1333 894.996 60.8667 910.863 54.2C926.729 47.4 943.729 44 961.863 44C970.129 44 977.796 44.9333 984.863 46.8C992.063 48.6667 998.596 51.2 1004.46 54.4C1010.46 57.6 1015.86 61.4666 1020.66 66C1025.46 70.4 1029.66 75.2 1033.26 80.4L1039.06 62.2C1040.4 58.8667 1041.46 56.2 1042.26 54.2C1043.2 52.0666 1044.13 50.5333 1045.06 49.6C1046.13 48.5333 1047.4 47.8666 1048.86 47.6C1050.33 47.2 1052.4 47 1055.06 47H1084.86C1086.33 47 1088.06 47.2 1090.06 47.6C1092.06 48 1093.8 48.9333 1095.26 50.4C1097.13 51.8667 1098.46 53.5333 1099.26 55.4C1100.06 57.2667 1100.46 59.4 1100.46 61.8V287.2ZM903.463 175.2C903.463 184 904.796 192.267 907.463 200C910.263 207.6 914.196 214.2 919.263 219.8C924.329 225.4 930.396 229.867 937.463 233.2C944.663 236.4 952.596 238 961.263 238C970.196 238 978.463 236.4 986.063 233.2C993.796 229.867 1000.46 225.4 1006.06 219.8C1011.8 214.2 1016.26 207.6 1019.46 200C1022.66 192.267 1024.26 184 1024.26 175.2C1024.26 166.667 1022.66 158.533 1019.46 150.8C1016.26 143.067 1011.8 136.267 1006.06 130.4C1000.46 124.533 993.796 119.933 986.063 116.6C978.463 113.133 970.196 111.4 961.263 111.4C952.596 111.4 944.663 113.133 937.463 116.6C930.396 119.933 924.329 124.533 919.263 130.4C914.196 136.267 910.263 143.067 907.463 150.8C904.796 158.533 903.463 166.667 903.463 175.2Z" fill="#0043DC"/>
<path d="M1344.04 88.8C1337.24 84 1329.97 80.2667 1322.24 77.6C1314.5 74.9333 1306.24 73.6 1297.44 73.6C1286.37 73.6 1276.24 75.7333 1267.04 80C1257.84 84.1333 1249.9 89.8 1243.24 97C1236.7 104.2 1231.57 112.667 1227.84 122.4C1224.1 132 1222.24 142.267 1222.24 153.2C1222.24 164.133 1224.1 174.4 1227.84 184C1231.57 193.6 1236.7 202 1243.24 209.2C1249.9 216.267 1257.84 221.867 1267.04 226C1276.24 230.133 1286.37 232.2 1297.44 232.2C1302.1 232.2 1306.7 231.867 1311.24 231.2C1315.9 230.533 1320.84 229.667 1326.04 228.6V176.2C1326.04 173.667 1326.77 171.6 1328.24 170C1329.7 168.267 1331.9 167.4 1334.84 167.4H1389.24C1391.24 167.4 1393.37 168.2 1395.64 169.8C1397.9 171.4 1399.04 173.533 1399.04 176.2V273C1399.04 276.6 1397.1 279.533 1393.24 281.8C1386.97 286.067 1380.04 289.733 1372.44 292.8C1364.84 295.867 1356.9 298.4 1348.64 300.4C1340.37 302.4 1331.97 303.867 1323.44 304.8C1315.04 305.867 1306.84 306.4 1298.84 306.4C1284.7 306.4 1271.1 304.6 1258.04 301C1245.1 297.4 1232.97 292.267 1221.64 285.6C1210.3 278.933 1199.97 271 1190.64 261.8C1181.44 252.467 1173.5 242.2 1166.84 231C1160.17 219.667 1155.04 207.533 1151.44 194.6C1147.84 181.533 1146.04 167.933 1146.04 153.8C1146.04 139.667 1147.84 126.133 1151.44 113.2C1155.04 100.133 1160.17 87.9333 1166.84 76.6C1173.5 65.1333 1181.44 54.7333 1190.64 45.4C1199.97 36.0667 1210.3 28.1333 1221.64 21.6C1232.97 14.9333 1245.1 9.79999 1258.04 6.19998C1271.1 2.46665 1284.7 0.599982 1298.84 0.599982C1314.84 0.599982 1329.9 2.86665 1344.04 7.39999C1358.3 11.8 1371.7 18.2 1384.24 26.6C1386.5 27.9333 1388.24 29.7333 1389.44 32C1390.64 34.1333 1390.37 36.6 1388.64 39.4L1356.24 86.2C1354.5 88.3333 1352.77 89.8 1351.04 90.6C1349.3 91.2667 1346.97 90.6667 1344.04 88.8ZM1520.43 153.6C1520.43 164.667 1522.29 175 1526.03 184.6C1529.76 194.2 1534.96 202.6 1541.63 209.8C1548.43 216.867 1556.43 222.467 1565.63 226.6C1574.83 230.6 1584.96 232.6 1596.03 232.6C1607.09 232.6 1617.23 230.6 1626.43 226.6C1635.76 222.467 1643.76 216.867 1650.43 209.8C1657.23 202.6 1662.49 194.2 1666.23 184.6C1669.96 175 1671.83 164.667 1671.83 153.6C1671.83 142.667 1669.96 132.4 1666.23 122.8C1662.49 113.067 1657.23 104.6 1650.43 97.4C1643.76 90.2 1635.76 84.5333 1626.43 80.4C1617.23 76.2667 1607.09 74.2 1596.03 74.2C1584.96 74.2 1574.83 76.2667 1565.63 80.4C1556.43 84.5333 1548.43 90.2 1541.63 97.4C1534.96 104.6 1529.76 113.067 1526.03 122.8C1522.29 132.4 1520.43 142.667 1520.43 153.6ZM1443.23 153.8C1443.23 139.667 1445.03 126.133 1448.63 113.2C1452.23 100.133 1457.36 87.9333 1464.03 76.6C1470.69 65.1333 1478.63 54.7333 1487.83 45.4C1497.16 36.0667 1507.49 28.1333 1518.83 21.6C1530.16 14.9333 1542.29 9.79999 1555.23 6.19998C1568.29 2.46665 1581.89 0.599982 1596.03 0.599982C1610.03 0.599982 1623.56 2.46665 1636.63 6.19998C1649.69 9.79999 1661.89 14.9333 1673.23 21.6C1684.56 28.1333 1694.89 36.0667 1704.23 45.4C1713.56 54.7333 1721.49 65.1333 1728.03 76.6C1734.69 87.9333 1739.83 100.133 1743.43 113.2C1747.16 126.133 1749.03 139.667 1749.03 153.8C1749.03 167.933 1747.16 181.533 1743.43 194.6C1739.83 207.533 1734.69 219.667 1728.03 231C1721.49 242.2 1713.56 252.467 1704.23 261.8C1694.89 271 1684.56 278.933 1673.23 285.6C1661.89 292.267 1649.69 297.4 1636.63 301C1623.56 304.6 1610.03 306.4 1596.03 306.4C1581.89 306.4 1568.29 304.6 1555.23 301C1542.29 297.4 1530.16 292.267 1518.83 285.6C1507.49 278.933 1497.16 271 1487.83 261.8C1478.63 252.467 1470.69 242.2 1464.03 231C1457.36 219.667 1452.23 207.533 1448.63 194.6C1445.03 181.533 1443.23 167.933 1443.23 153.8Z" fill="#FF7900"/>
</svg>
