<svg width="595" height="446" viewBox="0 0 595 446" fill="none" xmlns="http://www.w3.org/2000/svg">
<mask id="mask0_0_15" style="mask-type:luminance" maskUnits="userSpaceOnUse" x="0" y="0" width="595" height="446">
<rect width="594.451" height="445.838" fill="white"/>
</mask>
<g mask="url(#mask0_0_15)">
<path opacity="0.2" d="M171.255 286.321C184.604 294.911 201.684 300.42 220.529 301.781C220.539 301.855 220.544 301.929 220.554 302.004C227.296 353.747 291.247 388.074 363.392 378.673C432.105 369.72 483.466 324.331 482.373 275.328C511.241 259.95 528.978 234.433 525.552 208.141C523.376 191.439 513.021 177.229 497.597 167.168C505.248 153.053 508.617 137.715 506.592 122.178C499.85 70.4343 435.899 36.1081 363.754 45.5086C318.009 51.4693 279.961 73.5821 259.954 102.156C242.206 98.5687 222.77 97.7951 202.697 100.411C130.552 109.811 77.5326 159.379 84.2749 211.123C89.1904 248.847 124.517 277.307 171.255 286.321Z" fill="#0043DC"/>
<path d="M373.612 360.394C373.612 360.394 397.634 356.386 422.264 352.262C413.272 331.464 397.699 314.194 377.939 303.106L365.974 316.214C365.974 316.214 367.919 309.149 370.618 299.387C359.176 294.128 346.86 291.032 334.291 290.257L327.824 339.043C327.824 339.043 322.513 315.182 317.115 290.59C290.102 293.392 266.209 306.688 249.516 326.329L280.64 354.038C280.64 354.038 260.001 345.102 241.522 337.074C230.681 353.78 224.925 373.274 224.951 393.189C224.951 394.389 225 395.576 225.041 396.766H430.607C430.648 395.576 430.697 394.389 430.697 393.189C430.703 382.987 429.198 372.84 426.233 363.079L373.612 360.394Z" fill="#ECEDEE"/>
<mask id="mask1_0_15" style="mask-type:luminance" maskUnits="userSpaceOnUse" x="224" y="290" width="207" height="107">
<path fill-rule="evenodd" clip-rule="evenodd" d="M373.612 360.394C373.612 360.394 397.634 356.386 422.264 352.262C413.272 331.464 397.699 314.194 377.939 303.106L365.974 316.214C365.974 316.214 367.919 309.149 370.618 299.387C359.176 294.128 346.86 291.032 334.291 290.257L327.824 339.043C327.824 339.043 322.513 315.182 317.115 290.59C290.102 293.392 266.209 306.688 249.516 326.329L280.64 354.038C280.64 354.038 260.001 345.102 241.522 337.074C230.681 353.78 224.925 373.274 224.951 393.189C224.951 394.389 225 395.576 225.041 396.766H430.607C430.648 395.576 430.697 394.389 430.697 393.189C430.703 382.987 429.198 372.84 426.233 363.079L373.612 360.394Z" fill="white"/>
</mask>
<g mask="url(#mask1_0_15)">
<path d="M443.303 354.8L373.611 360.394L428.479 340.372" fill="#CFCFD0"/>
<path d="M390.111 301.243L365.974 316.214L376.595 299.932" fill="#CFCFD0"/>
<path d="M273.107 266.269L327.824 339.043V284.849" fill="#CFCFD0"/>
<path d="M224.95 343.512L280.64 354.038L235.767 325.945" fill="#CFCFD0"/>
<path d="M209.607 387.152C369.183 396.766 457.981 396.479 507.249 415.715C556.517 434.952 437.635 398.519 440.251 399.394C442.867 400.268 417.579 408.137 417.579 408.137L232.279 401.58L214.839 403.328" fill="#CFCFD0"/>
<ellipse cx="382.085" cy="387.834" rx="17.1693" ry="24.236" transform="rotate(-40.6283 382.085 387.834)" fill="#CFCFD0"/>
</g>
<path fill-rule="evenodd" clip-rule="evenodd" d="M373.612 360.394C373.612 360.394 397.634 356.386 422.264 352.262C413.272 331.464 397.699 314.194 377.939 303.106L365.974 316.214C365.974 316.214 367.919 309.149 370.618 299.387C359.176 294.128 346.86 291.032 334.291 290.257L327.824 339.043C327.824 339.043 322.513 315.182 317.115 290.59C290.102 293.392 266.209 306.688 249.516 326.329L280.64 354.038C280.64 354.038 260.001 345.102 241.522 337.074C230.681 353.78 224.925 373.274 224.951 393.189C224.951 394.389 225 395.576 225.041 396.766H430.607C430.648 395.576 430.697 394.389 430.697 393.189C430.703 382.987 429.198 372.84 426.233 363.079L373.612 360.394Z" stroke="#3D3D3C" stroke-width="1.1889" stroke-linecap="round" stroke-linejoin="round"/>
<path d="M291.241 337.377C294.143 340.625 297.703 343.218 301.686 344.983" stroke="#3D3D3C" stroke-width="1.1889" stroke-linecap="round" stroke-linejoin="round"/>
<path d="M372.762 320.044L370.582 322.23" stroke="#3D3D3C" stroke-width="1.1889" stroke-linecap="round" stroke-linejoin="round"/>
<rect x="334.926" y="95.7673" width="14.4822" height="300.999" fill="#ECEDEE" stroke="#3D3D3C" stroke-width="1.1889" stroke-linecap="round" stroke-linejoin="round"/>
<rect x="328.562" y="95.7673" width="14.4822" height="300.999" fill="white"/>
<mask id="mask2_0_15" style="mask-type:luminance" maskUnits="userSpaceOnUse" x="328" y="95" width="16" height="302">
<rect x="328.562" y="95.7673" width="14.4822" height="300.999" fill="white"/>
</mask>
<g mask="url(#mask2_0_15)">
<path d="M326.605 234.52C326.169 194.62 337.988 200.198 346.248 198.283C354.509 196.369 315.269 185.002 315.269 185.002" fill="#0043DC"/>
<path d="M326.823 159.098C327.695 142.594 343.49 142.745 343.49 142.745L327.804 135.955L322.79 139.643" fill="#0043DC"/>
</g>
<rect x="328.562" y="95.7673" width="14.4822" height="300.999" stroke="#3D3D3C" stroke-width="1.1889" stroke-linecap="round" stroke-linejoin="round"/>
<path d="M423.135 107.869L281.385 117.99L255.054 132.512L281.385 144.834L425.329 139.993L407.775 124.591L423.135 107.869Z" fill="#0043DC"/>
<mask id="mask3_0_15" style="mask-type:luminance" maskUnits="userSpaceOnUse" x="255" y="107" width="171" height="38">
<path fill-rule="evenodd" clip-rule="evenodd" d="M423.135 107.869L281.385 117.99L255.054 132.512L281.385 144.834L425.329 139.993L407.775 124.591L423.135 107.869Z" fill="white"/>
</mask>
<g mask="url(#mask3_0_15)">
<path d="M227.633 130.79C227.633 130.79 182.305 129.07 255.054 132.512C327.804 135.955 381.918 105.477 425.329 139.993C468.74 174.51 255.054 144.834 255.054 144.834L229.377 114.177" fill="#FFA008"/>
</g>
<path fill-rule="evenodd" clip-rule="evenodd" d="M423.135 107.869L281.385 117.99L255.054 132.512L281.385 144.834L425.329 139.993L407.775 124.591L423.135 107.869V107.869Z" stroke="#3D3D3C" stroke-width="1.1889" stroke-linecap="round" stroke-linejoin="round"/>
<path d="M246.692 160.118L399.972 171.063L428.445 186.766L399.972 200.09L244.319 194.856L263.301 178.201L246.692 160.118Z" fill="#0043DC"/>
<mask id="mask4_0_15" style="mask-type:luminance" maskUnits="userSpaceOnUse" x="244" y="160" width="185" height="41">
<path fill-rule="evenodd" clip-rule="evenodd" d="M246.692 160.118L399.972 171.063L428.445 186.766L399.972 200.09L244.319 194.856L263.301 178.201L246.692 160.118Z" fill="white"/>
</mask>
<g mask="url(#mask4_0_15)">
<path d="M238.097 200.997C266.489 161.532 323.724 196.369 364.973 185.439C406.221 174.509 375.07 213.013 428.445 186.766C481.82 160.519 376.309 234.52 376.309 234.52L257.281 217.792L249.869 213.42" fill="#FFA008"/>
</g>
<path fill-rule="evenodd" clip-rule="evenodd" d="M246.692 160.118L399.972 171.063L428.445 186.766L399.972 200.09L244.319 194.856L263.301 178.201L246.692 160.118V160.118Z" stroke="#3D3D3C" stroke-width="1.1889" stroke-linecap="round" stroke-linejoin="round"/>
<ellipse cx="335.803" cy="119.718" rx="1.96548" ry="1.97087" fill="#0043DC" stroke="#3D3D3C" stroke-width="1.1889" stroke-linecap="round" stroke-linejoin="round"/>
<ellipse cx="335.803" cy="135.955" rx="1.96548" ry="1.97087" fill="#0043DC" stroke="#3D3D3C" stroke-width="1.1889" stroke-linecap="round" stroke-linejoin="round"/>
<ellipse cx="335.803" cy="173.083" rx="1.96548" ry="1.97087" fill="#0043DC" stroke="#3D3D3C" stroke-width="1.1889" stroke-linecap="round" stroke-linejoin="round"/>
<ellipse cx="335.803" cy="189.32" rx="1.96548" ry="1.97087" fill="#0043DC" stroke="#3D3D3C" stroke-width="1.1889" stroke-linecap="round" stroke-linejoin="round"/>
<path d="M306.687 123.381C305.003 124.103 303.585 125.33 302.627 126.892" stroke="#3D3D3C" stroke-width="1.1889" stroke-linecap="round" stroke-linejoin="round"/>
<path d="M387.477 182.813L375.852 189.229" stroke="#3D3D3C" stroke-width="1.1889" stroke-linecap="round" stroke-linejoin="round"/>
<path d="M338.492 349.254L337.187 351.005" stroke="#3D3D3C" stroke-width="1.1889" stroke-linecap="round" stroke-linejoin="round"/>
<path d="M70.5786 46.1466L95.7196 83.1497L126.422 77.4268L83.448 43.7479L70.5786 46.1466Z" fill="white" stroke="#3D3D3C" stroke-width="1.1889" stroke-linecap="round" stroke-linejoin="round"/>
<path d="M326.982 58.7053C312.067 49.4735 294.242 46.1407 276.999 49.3592L95.7195 83.1497C97.7936 94.3378 98.4142 97.7863 107.919 103.687L338.939 62.7468C334.179 58.3689 333.8 62.9267 326.982 58.7053Z" fill="white"/>
<mask id="mask5_0_15" style="mask-type:luminance" maskUnits="userSpaceOnUse" x="95" y="48" width="244" height="56">
<path fill-rule="evenodd" clip-rule="evenodd" d="M326.982 58.7053C312.066 49.4735 294.242 46.1407 276.998 49.3592L95.7194 83.1497C97.7934 94.3378 98.414 97.7863 107.919 103.687L338.939 62.7468C334.179 58.3689 333.8 62.9267 326.982 58.7053Z" fill="white"/>
</mask>
<g mask="url(#mask5_0_15)">
<path d="M213.503 56.2012L219.676 61.8466C228.477 69.9015 240.518 73.417 252.27 71.3633L350.249 54.2234L313.781 22.3239L225.4 55.6523L213.503 56.2012Z" fill="#CFCFD0"/>
<path fill-rule="evenodd" clip-rule="evenodd" d="M213.503 56.2012L219.676 61.8466C228.477 69.9015 240.518 73.417 252.27 71.3633L350.249 54.2234L313.781 22.3239L225.4 55.6523L213.503 56.2012Z" stroke="#3D3D3C" stroke-width="1.1889" stroke-linecap="round" stroke-linejoin="round"/>
</g>
<path fill-rule="evenodd" clip-rule="evenodd" d="M326.982 58.7053C312.067 49.4735 294.242 46.1407 276.999 49.3592L95.7195 83.1497V83.1497C97.7936 94.3378 98.4142 97.7863 107.919 103.687L338.939 62.7468C334.179 58.3689 333.8 62.9267 326.982 58.7053Z" stroke="#3D3D3C" stroke-width="1.1889" stroke-linecap="round" stroke-linejoin="round"/>
<path d="M129.381 47.575L142.817 45.0705C147.645 44.1706 152.634 44.7824 157.102 46.8223L232.077 81.6843L178.127 91.4138L128.082 53.023C125.979 51.4096 126.777 48.0603 129.381 47.575Z" fill="white" stroke="#3D3D3C" stroke-width="1.1889" stroke-linecap="round" stroke-linejoin="round"/>
<path d="M280.331 55.6086L277.284 57.8022" stroke="#3D3D3C" stroke-width="1.1889" stroke-linecap="round" stroke-linejoin="round"/>
<path d="M131.678 91.4902L122.522 95.4249" stroke="#3D3D3C" stroke-width="1.1889" stroke-linecap="round" stroke-linejoin="round"/>
<rect x="334.134" y="339.531" width="193.414" height="57.2353" rx="10.0577" fill="#0043DC"/>
<mask id="mask6_0_15" style="mask-type:luminance" maskUnits="userSpaceOnUse" x="334" y="339" width="194" height="58">
<rect x="334.134" y="339.531" width="193.414" height="57.2353" rx="10.0577" fill="white"/>
</mask>
<g mask="url(#mask6_0_15)">
<path d="M310.31 393.343C527.549 386.695 518.213 406.338 527.549 371.131C536.884 335.925 559.701 400.339 559.701 400.339L538.773 418.409L381.928 424.238L348.678 413.43" fill="#FFA008"/>
</g>
<rect x="334.134" y="339.531" width="193.414" height="57.2353" rx="10.0577" stroke="#3D3D3C" stroke-width="1.1889" stroke-linecap="round" stroke-linejoin="round"/>
<rect x="334.134" y="365.166" width="193.414" height="5.96549" fill="white" stroke="#3D3D3C" stroke-width="1.1889" stroke-linecap="round" stroke-linejoin="round"/>
<rect x="372.75" y="358.047" width="9.17823" height="20.2026" rx="3.2169" fill="white" stroke="#3D3D3C" stroke-width="1.1889" stroke-linecap="round" stroke-linejoin="round"/>
<rect x="479.755" y="358.047" width="9.17823" height="20.2026" rx="3.2169" fill="white" stroke="#3D3D3C" stroke-width="1.1889" stroke-linecap="round" stroke-linejoin="round"/>
<rect x="352.686" y="290.06" width="167.511" height="49.5701" rx="10.0577" fill="#4F4F5B"/>
<mask id="mask7_0_15" style="mask-type:luminance" maskUnits="userSpaceOnUse" x="352" y="290" width="169" height="50">
<rect x="352.686" y="290.06" width="167.511" height="49.5701" rx="10.0577" fill="white"/>
</mask>
<g mask="url(#mask7_0_15)">
<path d="M337.197 323.594C349.841 345.031 520.197 349.836 520.197 317.428C520.197 276.893 536.884 335.925 536.884 335.925L533.832 351.664L501.132 374.836L345.917 352.101L340.685 334.176" fill="#3D3D3C"/>
<g opacity="0.16">
<path fill-rule="evenodd" clip-rule="evenodd" d="M444.473 402.961L438.26 408.104L345.469 295.38L351.682 290.237L444.473 402.961V402.961Z" stroke="#3D3D3C" stroke-width="1.1889" stroke-linecap="round" stroke-linejoin="round"/>
<path fill-rule="evenodd" clip-rule="evenodd" d="M456.322 393.154L450.109 398.297L357.318 285.572L363.53 280.43L456.322 393.154V393.154Z" stroke="#3D3D3C" stroke-width="1.1889" stroke-linecap="round" stroke-linejoin="round"/>
<path fill-rule="evenodd" clip-rule="evenodd" d="M468.171 383.347L461.958 388.49L369.166 275.765L375.379 270.623L468.171 383.347V383.347Z" stroke="#3D3D3C" stroke-width="1.1889" stroke-linecap="round" stroke-linejoin="round"/>
<path fill-rule="evenodd" clip-rule="evenodd" d="M480.02 373.54L473.807 378.682L381.015 265.958L387.228 260.816L480.02 373.54V373.54Z" stroke="#3D3D3C" stroke-width="1.1889" stroke-linecap="round" stroke-linejoin="round"/>
<path fill-rule="evenodd" clip-rule="evenodd" d="M491.868 363.733L485.656 368.875L392.864 256.151L399.077 251.009L491.868 363.733V363.733Z" stroke="#3D3D3C" stroke-width="1.1889" stroke-linecap="round" stroke-linejoin="round"/>
<path fill-rule="evenodd" clip-rule="evenodd" d="M503.717 353.926L497.504 359.068L404.713 246.344L410.926 241.201L503.717 353.926V353.926Z" stroke="#3D3D3C" stroke-width="1.1889" stroke-linecap="round" stroke-linejoin="round"/>
<path fill-rule="evenodd" clip-rule="evenodd" d="M515.566 344.118L509.353 349.261L416.562 236.537L422.774 231.394L515.566 344.118V344.118Z" stroke="#3D3D3C" stroke-width="1.1889" stroke-linecap="round" stroke-linejoin="round"/>
<path fill-rule="evenodd" clip-rule="evenodd" d="M527.415 334.311L521.202 339.454L428.41 226.729L434.623 221.587L527.415 334.311V334.311Z" stroke="#3D3D3C" stroke-width="1.1889" stroke-linecap="round" stroke-linejoin="round"/>
</g>
<g opacity="0.46">
<path fill-rule="evenodd" clip-rule="evenodd" d="M339.266 315.606L332.949 307.932L449.287 211.64L455.604 219.313L339.266 315.606V315.606Z" stroke="#3D3D3C" stroke-width="1.1889" stroke-linecap="round" stroke-linejoin="round"/>
<path fill-rule="evenodd" clip-rule="evenodd" d="M351.313 330.241L344.996 322.567L461.334 226.275L467.651 233.948L351.313 330.241V330.241Z" stroke="#3D3D3C" stroke-width="1.1889" stroke-linecap="round" stroke-linejoin="round"/>
<path fill-rule="evenodd" clip-rule="evenodd" d="M363.36 344.876L357.043 337.202L473.381 240.91L479.698 248.583L363.36 344.876V344.876Z" stroke="#3D3D3C" stroke-width="1.1889" stroke-linecap="round" stroke-linejoin="round"/>
<path fill-rule="evenodd" clip-rule="evenodd" d="M375.407 359.511L369.09 351.837L485.428 255.545L491.745 263.219L375.407 359.511V359.511Z" stroke="#3D3D3C" stroke-width="1.1889" stroke-linecap="round" stroke-linejoin="round"/>
<path fill-rule="evenodd" clip-rule="evenodd" d="M387.455 374.146L381.138 366.472L497.476 270.18L503.793 277.853L387.455 374.146V374.146Z" stroke="#3D3D3C" stroke-width="1.1889" stroke-linecap="round" stroke-linejoin="round"/>
<path fill-rule="evenodd" clip-rule="evenodd" d="M399.502 388.781L393.185 381.107L509.523 284.815L515.84 292.489L399.502 388.781V388.781Z" stroke="#3D3D3C" stroke-width="1.1889" stroke-linecap="round" stroke-linejoin="round"/>
<path fill-rule="evenodd" clip-rule="evenodd" d="M411.549 403.416L405.232 395.742L521.57 299.45L527.887 307.124L411.549 403.416V403.416Z" stroke="#3D3D3C" stroke-width="1.1889" stroke-linecap="round" stroke-linejoin="round"/>
<path fill-rule="evenodd" clip-rule="evenodd" d="M423.596 418.051L417.279 410.377L533.617 314.085L539.934 321.759L423.596 418.051V418.051Z" stroke="#3D3D3C" stroke-width="1.1889" stroke-linecap="round" stroke-linejoin="round"/>
</g>
</g>
<rect x="352.686" y="290.06" width="167.511" height="49.5701" rx="10.0577" stroke="#3D3D3C" stroke-width="1.1889" stroke-linecap="round" stroke-linejoin="round"/>
<rect x="352.686" y="312.262" width="167.511" height="5.16656" fill="#0043DC" stroke="#3D3D3C" stroke-width="1.1889" stroke-linecap="round" stroke-linejoin="round"/>
<rect x="386.13" y="306.097" width="7.94902" height="17.4969" rx="3.2169" fill="#0043DC" stroke="#3D3D3C" stroke-width="1.1889" stroke-linecap="round" stroke-linejoin="round"/>
<rect x="478.804" y="306.097" width="7.94902" height="17.4969" rx="3.2169" fill="#0043DC" stroke="#3D3D3C" stroke-width="1.1889" stroke-linecap="round" stroke-linejoin="round"/>
<path d="M385.508 298L382.456 301.497" stroke="#3D3D3C" stroke-width="1.1889" stroke-linecap="round" stroke-linejoin="round"/>
<path d="M471.771 380.124L464.381 387.143" stroke="#3D3D3C" stroke-width="1.1889" stroke-linecap="round" stroke-linejoin="round"/>
<path d="M257.639 174.423C263.888 179.973 273.576 193.402 277.479 194.01C281.383 194.618 300.171 179.512 301.303 176.612C302.435 173.712 304.794 157.342 309.235 163.817C314.106 170.92 309.297 177.479 305.446 181.005C305.446 181.005 283.752 206.259 277.479 207.597C271.206 208.935 252.33 189.112 252.33 189.112L257.639 174.423Z" fill="#F5F6F7"/>
<mask id="mask8_0_15" style="mask-type:luminance" maskUnits="userSpaceOnUse" x="252" y="162" width="60" height="46">
<path fill-rule="evenodd" clip-rule="evenodd" d="M257.639 174.423C263.888 179.973 273.576 193.402 277.479 194.01C281.383 194.618 300.171 179.512 301.303 176.612C302.435 173.712 304.794 157.342 309.235 163.817C314.106 170.92 309.297 177.48 305.446 181.005C305.446 181.005 283.752 206.259 277.479 207.597C271.206 208.935 252.33 189.112 252.33 189.112L257.639 174.423Z" fill="white"/>
</mask>
<g mask="url(#mask8_0_15)">
<path d="M262.637 202.477C260.719 194.862 268.544 189.066 268.338 185.956C268.131 182.846 255.702 188.05 255.702 188.05L256.005 198.936" fill="#CFCFD0"/>
</g>
<path fill-rule="evenodd" clip-rule="evenodd" d="M257.639 174.423C263.888 179.973 273.576 193.402 277.479 194.01C281.383 194.618 300.171 179.512 301.303 176.612C302.435 173.712 304.794 157.342 309.235 163.817C314.106 170.92 309.297 177.479 305.446 181.005C305.446 181.005 283.752 206.259 277.479 207.597C271.206 208.935 252.33 189.112 252.33 189.112L257.639 174.423Z" stroke="#3D3D3C" stroke-width="1.1889" stroke-linecap="round" stroke-linejoin="round"/>
<path d="M257.903 197.378C257.903 197.378 266.293 190.458 269.135 184.487C269.135 184.487 258.444 166.712 256.414 167.526C254.385 168.34 244.622 186.753 257.903 197.378Z" fill="#ECEDEE"/>
<mask id="mask9_0_15" style="mask-type:luminance" maskUnits="userSpaceOnUse" x="251" y="167" width="19" height="31">
<path fill-rule="evenodd" clip-rule="evenodd" d="M257.903 197.378C257.903 197.378 266.293 190.458 269.135 184.487C269.135 184.487 258.444 166.712 256.414 167.526C254.385 168.34 244.622 186.753 257.903 197.378Z" fill="white"/>
</mask>
<g mask="url(#mask9_0_15)">
<path d="M268.158 176.976C269.135 184.487 250.646 197.378 250.646 197.378L255.531 203.803L276.283 191.343" fill="#ECEDEE"/>
<path d="M268.158 176.976C269.135 184.487 250.646 197.378 250.646 197.378L255.531 203.803L276.283 191.343" stroke="#3D3D3C" stroke-width="1.1889" stroke-linecap="round" stroke-linejoin="round"/>
</g>
<path fill-rule="evenodd" clip-rule="evenodd" d="M257.903 197.378C257.903 197.378 266.293 190.458 269.135 184.487C269.135 184.487 258.444 166.712 256.414 167.526C254.385 168.34 244.622 186.753 257.903 197.378Z" stroke="#3D3D3C" stroke-width="1.1889" stroke-linecap="round" stroke-linejoin="round"/>
<path d="M276.603 370.626L285.607 390.969L297.402 390.012L287.156 366.392L276.603 370.626Z" fill="#F5F6F7"/>
<mask id="mask10_0_15" style="mask-type:luminance" maskUnits="userSpaceOnUse" x="276" y="366" width="22" height="25">
<path fill-rule="evenodd" clip-rule="evenodd" d="M276.603 370.626L285.607 390.969L297.402 390.012L287.156 366.392L276.603 370.626Z" fill="white"/>
</mask>
<g mask="url(#mask10_0_15)">
<path d="M282.351 386.943C281.135 379.221 291.407 380.212 292.907 375.525C294.407 370.838 279.609 376.064 279.609 376.064C279.609 376.064 278.056 376.592 277.815 377.329C277.574 378.066 281.726 383.46 281.726 383.46" fill="#CFCFD0"/>
</g>
<path fill-rule="evenodd" clip-rule="evenodd" d="M276.603 370.626L285.607 390.969L297.402 390.012L287.156 366.392L276.603 370.626V370.626Z" stroke="#3D3D3C" stroke-width="1.1889" stroke-linecap="round" stroke-linejoin="round"/>
<path d="M284.527 399.086L281.726 383.46C281.726 383.46 292.436 391.241 296.936 385.37C296.936 385.37 308.024 390.437 315.794 392.222C319.286 393.024 321.693 396.067 321.465 399.485L321.46 399.567L284.527 399.086Z" fill="#ECEDEE" stroke="#3D3D3C" stroke-width="1.1889" stroke-linecap="round" stroke-linejoin="round"/>
<path d="M167.098 353.767L150.636 370.102L156.988 378.898L176.198 360.095L167.098 353.767Z" fill="#F5F6F7"/>
<mask id="mask11_0_15" style="mask-type:luminance" maskUnits="userSpaceOnUse" x="150" y="353" width="27" height="26">
<path fill-rule="evenodd" clip-rule="evenodd" d="M167.098 353.767L150.636 370.102L156.988 378.898L176.198 360.095L167.098 353.767Z" fill="white"/>
</mask>
<g mask="url(#mask11_0_15)">
<path d="M156.076 362.32C161.065 359.754 166.921 366.768 169.228 366.917C171.534 367.066 164.033 357.526 164.033 357.526L159.128 357.238L137.982 323.396" fill="#CFCFD0"/>
</g>
<path fill-rule="evenodd" clip-rule="evenodd" d="M167.098 353.767L150.636 370.102L156.988 378.898L176.198 360.095L167.098 353.767V353.767Z" stroke="#3D3D3C" stroke-width="1.1889" stroke-linecap="round" stroke-linejoin="round"/>
<path d="M144.714 373.166L156.458 363.636C156.458 363.636 153.478 375.572 161.47 376.414C161.47 376.414 161.411 386.691 162.982 393.605C163.787 397.148 161.829 400.724 158.308 402.09L144.019 376.673C143.357 375.492 143.652 374.005 144.714 373.166Z" fill="#ECEDEE" stroke="#3D3D3C" stroke-width="1.1889" stroke-linecap="round" stroke-linejoin="round"/>
<path d="M209.823 141.152C213.008 138.55 216.259 136.049 219.573 133.648C215.283 136.487 211.971 139.027 209.823 141.152Z" fill="#4F4F5B" stroke="#3D3D3C" stroke-width="1.1889" stroke-linecap="round" stroke-linejoin="round"/>
<path d="M212.095 139.404L212.1 139.402C212.104 139.398 212.109 139.393 212.114 139.389C212.108 139.394 212.101 139.399 212.095 139.404Z" fill="#4F4F5B" stroke="#3D3D3C" stroke-width="1.1889" stroke-linecap="round" stroke-linejoin="round"/>
<path d="M290.641 118.143C290.115 117.402 288.061 117.316 284.882 117.779C277.485 118.854 263.961 122.917 249.163 128.732C237.136 133.457 226.867 138.318 220.559 142.088C218.806 143.238 217.083 144.435 215.391 145.681C215.387 145.684 215.382 145.689 215.378 145.692C214.127 146.813 213.622 147.692 214.017 148.249C215.766 150.715 234.337 145.975 255.496 137.661C276.655 129.348 292.39 120.609 290.641 118.143Z" fill="#4F4F5B" stroke="#3D3D3C" stroke-width="1.1889" stroke-linecap="round" stroke-linejoin="round"/>
<path d="M259.874 135.98C259.874 135.98 251.519 152.877 257.118 164.153L242.276 175.495L238.762 156.769C238.762 156.769 246.16 138.442 245.028 131.174C243.896 123.905 259.874 135.98 259.874 135.98Z" fill="#F5F6F7"/>
<mask id="mask12_0_15" style="mask-type:luminance" maskUnits="userSpaceOnUse" x="238" y="128" width="22" height="48">
<path fill-rule="evenodd" clip-rule="evenodd" d="M259.874 135.98C259.874 135.98 251.519 152.877 257.118 164.153L242.276 175.495L238.762 156.769C238.762 156.769 246.16 138.442 245.028 131.174C243.896 123.905 259.874 135.98 259.874 135.98Z" fill="white"/>
</mask>
<g mask="url(#mask12_0_15)">
<path d="M275.556 142.088C275.556 148.003 266.577 159.355 259.134 159.355C251.692 159.355 252.33 149.531 252.33 143.616C252.33 137.702 254.637 131.379 262.08 131.379C269.522 131.379 275.556 136.174 275.556 142.088Z" fill="#CFCFD0"/>
</g>
<path fill-rule="evenodd" clip-rule="evenodd" d="M259.874 135.98C259.874 135.98 251.519 152.877 257.118 164.153L242.276 175.495L238.762 156.769C238.762 156.769 246.16 138.442 245.028 131.174C243.896 123.905 259.874 135.98 259.874 135.98Z" stroke="#3D3D3C" stroke-width="1.1889" stroke-linecap="round" stroke-linejoin="round"/>
<path d="M248.215 142.475C245.275 139.505 243.191 135.56 241.822 131.98C239.169 125.043 244.688 123.448 250.475 121.514C267.171 115.935 270.524 147.069 258.854 147.156C256.453 147.183 254.086 146.575 251.995 145.394" fill="#F5F6F7"/>
<path d="M248.215 142.475C245.275 139.505 243.191 135.56 241.822 131.98C239.169 125.043 244.688 123.448 250.475 121.514C267.171 115.935 270.524 147.069 258.854 147.156C256.453 147.183 254.086 146.575 251.995 145.394" stroke="#3D3D3C" stroke-width="1.1889" stroke-linecap="round" stroke-linejoin="round"/>
<path d="M249.089 132.019C258.355 132.473 266.364 123.906 262.636 122.375C259.673 121.159 247.04 113.68 240.988 124.543C234.935 135.406 241.767 138.963 236.096 141.872C229.843 145.079 244.449 156.654 250.505 138.107C252.409 132.277 249.089 132.019 249.089 132.019Z" fill="#ECEDEE" stroke="#3D3D3C" stroke-width="1.1889" stroke-linecap="round" stroke-linejoin="round"/>
<path d="M278.81 379.293C281.726 383.46 293.628 376.429 293.628 376.429C293.628 376.429 279.944 303.75 276.603 291.012C275.307 286.072 251.299 226.886 251.299 226.886L215.348 238.823C215.348 238.823 241.458 295.431 251.299 305.721C251.299 305.721 275.893 375.126 278.81 379.293Z" fill="#0043DC"/>
<path fill-rule="evenodd" clip-rule="evenodd" d="M278.81 379.293C281.726 383.46 293.628 376.429 293.628 376.429C293.628 376.429 279.944 303.75 276.603 291.012C275.307 286.072 251.299 226.886 251.299 226.886L215.348 238.823C215.348 238.823 241.458 295.431 251.299 305.721C251.299 305.721 275.893 375.126 278.81 379.293Z" stroke="#3D3D3C" stroke-width="1.1889" stroke-linecap="round" stroke-linejoin="round"/>
<path d="M251.299 226.886C251.299 226.886 229.754 220.932 221.359 215.514C221.359 215.514 206.262 226.886 214.627 294.398C214.627 294.398 180.949 322.19 161.225 355.959C161.225 355.959 164.125 366.313 171.08 367.47C171.08 367.47 234.952 310.697 240.387 300.876C243.837 294.641 246.775 268.965 248.796 249.482" fill="#0043DC"/>
<path d="M251.299 226.886C251.299 226.886 229.754 220.932 221.359 215.514C221.359 215.514 206.262 226.886 214.627 294.398C214.627 294.398 180.949 322.19 161.225 355.959C161.225 355.959 164.125 366.313 171.08 367.47C171.08 367.47 234.952 310.697 240.387 300.876C243.837 294.641 246.775 268.965 248.796 249.482" stroke="#3D3D3C" stroke-width="1.1889" stroke-linecap="round" stroke-linejoin="round"/>
<path d="M209.508 218.831C209.508 218.831 241.484 234.89 260.068 225.738C260.068 225.738 249.318 201.727 259.821 192.706C270.559 183.485 259.484 166.38 257.118 164.153C257.118 164.153 251.299 166.132 244.557 156.877C238.459 148.504 209.049 207.8 209.508 218.831Z" fill="#ECEDEE"/>
<mask id="mask13_0_15" style="mask-type:luminance" maskUnits="userSpaceOnUse" x="209" y="156" width="56" height="73">
<path fill-rule="evenodd" clip-rule="evenodd" d="M209.508 218.831C209.508 218.831 241.484 234.89 260.068 225.738C260.068 225.738 249.318 201.727 259.821 192.706C270.559 183.485 259.484 166.38 257.118 164.153C257.118 164.153 251.299 166.132 244.557 156.877C238.459 148.504 209.049 207.8 209.508 218.831Z" fill="white"/>
</mask>
<g mask="url(#mask13_0_15)">
<path d="M242.834 182.438C242.834 182.438 237.878 195.382 253.126 194.533C253.126 194.533 232.219 192.069 233.558 226.826H215.348C215.348 226.826 221.105 222.522 221.359 215.514C221.613 208.506 232.219 192.069 232.219 192.069L242.834 182.438Z" fill="#CFCFD0"/>
<path d="M249.819 172.065V190.274L279.012 179.883L249.819 172.065Z" fill="#ECEDEE"/>
<mask id="mask14_0_15" style="mask-type:luminance" maskUnits="userSpaceOnUse" x="249" y="172" width="31" height="19">
<path fill-rule="evenodd" clip-rule="evenodd" d="M249.819 172.065V190.274L279.012 179.883L249.819 172.065Z" fill="white"/>
</mask>
<g mask="url(#mask14_0_15)">
<rect x="245.973" y="165.618" width="7.98864" height="30.0954" fill="#ECEDEE" stroke="#3D3D3C" stroke-width="1.1889" stroke-linecap="round" stroke-linejoin="round"/>
</g>
<path fill-rule="evenodd" clip-rule="evenodd" d="M249.819 172.065V190.274L279.012 179.883L249.819 172.065V172.065Z" stroke="#3D3D3C" stroke-width="1.1889" stroke-linecap="round" stroke-linejoin="round"/>
</g>
<path fill-rule="evenodd" clip-rule="evenodd" d="M209.508 218.831C209.508 218.831 241.484 234.89 260.068 225.738C260.068 225.738 249.318 201.727 259.821 192.706C270.559 183.485 259.484 166.38 257.118 164.153C257.118 164.153 251.299 166.132 244.557 156.877C238.459 148.504 209.049 207.8 209.508 218.831Z" stroke="#3D3D3C" stroke-width="1.1889" stroke-linecap="round" stroke-linejoin="round"/>
<path d="M227.47 252.389C227.144 256.234 215.669 274.005 214.02 266.956C212.371 259.906 221.231 251.791 221.231 251.791C221.231 251.791 213.935 199.527 217.749 193.072C221.562 186.618 230.07 151.224 244.557 156.877C259.045 162.531 232.393 200.67 232.393 200.67L227.47 252.389Z" fill="#F5F6F7"/>
<mask id="mask15_0_15" style="mask-type:luminance" maskUnits="userSpaceOnUse" x="213" y="156" width="36" height="113">
<path fill-rule="evenodd" clip-rule="evenodd" d="M227.47 252.389C227.144 256.234 215.669 274.005 214.02 266.956C212.371 259.906 221.231 251.791 221.231 251.791C221.231 251.791 213.935 199.527 217.749 193.072C221.562 186.617 230.07 151.224 244.557 156.877C259.045 162.531 232.393 200.67 232.393 200.67L227.47 252.389Z" fill="white"/>
</mask>
<g mask="url(#mask15_0_15)">
<path d="M212.538 195.045C226.062 181.254 237.679 188.099 242.128 185.677C246.578 183.255 216.752 176.683 216.752 176.683L213.815 180.034" fill="#CFCFD0"/>
</g>
<path fill-rule="evenodd" clip-rule="evenodd" d="M227.47 252.389C227.144 256.234 215.669 274.005 214.02 266.956C212.371 259.906 221.231 251.791 221.231 251.791C221.231 251.791 213.935 199.527 217.749 193.072C221.562 186.617 230.07 151.224 244.557 156.877C259.045 162.531 232.393 200.67 232.393 200.67L227.47 252.389Z" stroke="#3D3D3C" stroke-width="1.1889" stroke-linecap="round" stroke-linejoin="round"/>
<path d="M219.901 178.605C219.901 178.605 239.892 188.063 245.699 185.123C245.699 185.123 260.136 156.42 245.3 153.981C230.463 151.541 219.901 178.605 219.901 178.605Z" fill="#ECEDEE"/>
<mask id="mask16_0_15" style="mask-type:luminance" maskUnits="userSpaceOnUse" x="219" y="153" width="33" height="33">
<path fill-rule="evenodd" clip-rule="evenodd" d="M219.901 178.605C219.901 178.605 239.892 188.063 245.698 185.123C245.698 185.123 260.136 156.42 245.299 153.981C230.463 151.541 219.901 178.605 219.901 178.605Z" fill="white"/>
</mask>
<g mask="url(#mask16_0_15)">
<path d="M218.078 169.758C221.348 175.32 242.67 183.808 246.942 182.438C251.213 181.069 245.973 187.409 245.973 187.409L218.514 188.283" fill="#ECEDEE"/>
<path d="M218.078 169.758C221.348 175.32 242.67 183.808 246.942 182.438C251.213 181.069 245.973 187.409 245.973 187.409L218.514 188.283" stroke="#3D3D3C" stroke-width="1.1889" stroke-linecap="round" stroke-linejoin="round"/>
</g>
<path fill-rule="evenodd" clip-rule="evenodd" d="M219.901 178.605C219.901 178.605 239.892 188.063 245.699 185.123C245.699 185.123 260.136 156.42 245.3 153.981C230.463 151.541 219.901 178.605 219.901 178.605Z" stroke="#3D3D3C" stroke-width="1.1889" stroke-linecap="round" stroke-linejoin="round"/>
<ellipse cx="239.227" cy="121.018" rx="4.27679" ry="3.52468" fill="#4F4F5B" stroke="#3D3D3C" stroke-width="1.1889" stroke-linecap="round" stroke-linejoin="round"/>
<path d="M237.484 133.476C236.839 131.674 236.699 129.73 237.081 127.854C238.375 121.03 245.429 115.446 252.836 115.383C258.197 115.337 263.063 118.593 264.416 122.763" fill="#4F4F5B"/>
<mask id="mask17_0_15" style="mask-type:luminance" maskUnits="userSpaceOnUse" x="236" y="115" width="29" height="19">
<path fill-rule="evenodd" clip-rule="evenodd" d="M237.484 133.476C236.839 131.674 236.699 129.73 237.081 127.854C238.375 121.03 245.429 115.446 252.836 115.383C258.197 115.337 263.063 118.593 264.416 122.763" fill="white"/>
</mask>
<g mask="url(#mask17_0_15)">
<path d="M226.144 134.945C248.525 118.186 269.135 123.724 269.135 123.724L233.992 137.816" fill="#0043DC"/>
</g>
<path d="M237.484 133.476C236.839 131.674 236.699 129.73 237.081 127.854C238.375 121.03 245.429 115.446 252.836 115.383C258.197 115.337 263.063 118.593 264.416 122.763" stroke="#3D3D3C" stroke-width="1.1889" stroke-linecap="round" stroke-linejoin="round"/>
<path d="M284.882 117.779C284.873 117.779 284.865 117.779 284.856 117.78C279.637 118.162 246.974 124.769 220.559 142.088C226.867 138.318 237.136 133.457 249.163 128.732C263.961 122.917 277.485 118.854 284.882 117.779Z" fill="#4F4F5B" stroke="#3D3D3C" stroke-width="1.1889" stroke-linecap="round" stroke-linejoin="round"/>
<path d="M300.651 177.979C299.783 177.687 299.315 176.747 299.605 175.879L308.512 149.139C308.651 148.722 308.949 148.377 309.342 148.18C309.735 147.983 310.19 147.951 310.607 148.09C311.475 148.382 311.943 149.322 311.653 150.19L302.746 176.93C302.608 177.348 302.309 177.693 301.916 177.889C301.523 178.086 301.068 178.118 300.651 177.979Z" fill="#4F4F5B" stroke="#3D3D3C" stroke-width="1.1889" stroke-linecap="round" stroke-linejoin="round"/>
<path d="M165.213 348.624L161.225 355.959C161.225 355.959 163.323 366.751 171.08 367.47L175.77 363.279C175.77 363.279 165.431 359.007 165.213 348.624Z" fill="#0043DC" stroke="#3D3D3C" stroke-width="1.1889" stroke-linecap="round" stroke-linejoin="round"/>
<path d="M274.615 372.031L278.655 379.337C278.655 379.337 289.375 382.424 294.136 376.241L293.119 370.025C293.119 370.025 283.475 377.409 274.615 372.031Z" fill="#0043DC" stroke="#3D3D3C" stroke-width="1.1889" stroke-linecap="round" stroke-linejoin="round"/>
<path d="M261.31 131.618C261.857 131.531 262.37 131.904 262.457 132.451L262.723 134.132C262.764 134.395 262.7 134.663 262.543 134.878C262.387 135.093 262.152 135.237 261.889 135.279C261.342 135.365 260.829 134.992 260.743 134.446L260.477 132.764C260.39 132.217 260.763 131.704 261.31 131.618L261.31 131.618Z" fill="#3D3D3C"/>
<path d="M261.67 128.157C258.659 128.497 258.189 129.845 260.085 129.756C261.981 129.667 263.638 127.935 261.67 128.157Z" fill="#3D3D3C"/>
<path d="M264.285 133.122C268.296 134.887 267.554 138.948 264.883 138.433L264.285 133.122Z" fill="#F5F6F7"/>
<path d="M264.285 133.122C268.296 134.887 267.554 138.948 264.883 138.433" stroke="#3D3D3C" stroke-width="1.1889" stroke-linecap="round" stroke-linejoin="round"/>
<ellipse opacity="0.27" cx="258.378" cy="136.406" rx="1.68753" ry="2.28219" transform="rotate(-89.2641 258.378 136.406)" fill="#CFCFD0"/>
<path d="M259.718 138.66C260.573 139.686 261.92 140.164 263.231 139.907L259.718 138.66Z" fill="white"/>
<path d="M259.718 138.66C260.573 139.686 261.92 140.164 263.231 139.907" stroke="#3D3D3C" stroke-width="1.1889" stroke-linecap="round" stroke-linejoin="round"/>
<path d="M251.94 134.982C245.654 131.339 243.765 139.536 251.577 141.066L251.94 134.982Z" fill="#F5F6F7"/>
<path d="M251.94 134.982C245.654 131.339 243.765 139.536 251.577 141.066" stroke="#3D3D3C" stroke-width="1.1889" stroke-linecap="round" stroke-linejoin="round"/>
<path d="M250.961 136.552C250.763 136.215 250.381 136.031 249.993 136.086C249.606 136.141 249.29 136.425 249.194 136.804C249.098 137.184 249.24 137.583 249.555 137.816" stroke="#3D3D3C" stroke-width="1.1889" stroke-linecap="round" stroke-linejoin="round"/>
<path d="M246.642 193.667C248.208 195.012 250.401 195.349 252.298 194.536" stroke="#3D3D3C" stroke-width="1.1889" stroke-linecap="round" stroke-linejoin="round"/>
<path d="M244.891 219.178L250.414 218.887" stroke="#3D3D3C" stroke-width="1.1889" stroke-linecap="round" stroke-linejoin="round"/>
<path d="M231.821 200.803L229.802 199.324" stroke="#3D3D3C" stroke-width="1.1889" stroke-linecap="round" stroke-linejoin="round"/>
<path d="M276.853 193.824C276.969 194.327 276.873 194.857 276.587 195.287" stroke="#3D3D3C" stroke-width="1.1889" stroke-linecap="round" stroke-linejoin="round"/>
<path d="M214.673 294.655C215.679 295.503 217.146 295.516 218.168 294.688" stroke="#3D3D3C" stroke-width="1.1889" stroke-linecap="round" stroke-linejoin="round"/>
<path d="M251.335 307.06L257.107 305.184" stroke="#3D3D3C" stroke-width="1.1889" stroke-linecap="round" stroke-linejoin="round"/>
<path d="M165.486 376.591C163.989 377.227 162.6 378.092 161.369 379.154L165.99 379.899" stroke="#3D3D3C" stroke-width="1.1889" stroke-linecap="round" stroke-linejoin="round"/>
<path d="M300.557 383.265L300.276 386.707C302.817 385.228 305.638 384.295 308.559 383.968" stroke="#3D3D3C" stroke-width="1.1889" stroke-linecap="round" stroke-linejoin="round"/>
<path d="M217.693 264.582L180.171 299.15L177.08 295.791L214.605 261.212C215.225 260.641 216.109 260.459 216.904 260.737C217.699 261.016 218.276 261.71 218.404 262.543C218.522 263.299 218.256 264.064 217.693 264.582Z" fill="#4F4F5B"/>
<mask id="mask18_0_15" style="mask-type:luminance" maskUnits="userSpaceOnUse" x="177" y="260" width="42" height="40">
<path fill-rule="evenodd" clip-rule="evenodd" d="M217.693 264.582L180.171 299.15L177.08 295.791L214.605 261.212C215.225 260.641 216.109 260.459 216.904 260.737C217.699 261.016 218.276 261.71 218.404 262.543C218.522 263.299 218.256 264.064 217.693 264.582Z" fill="white"/>
</mask>
<g mask="url(#mask18_0_15)">
<path d="M192.412 275.175C186.744 285.231 191.322 290.878 191.322 290.878C191.322 290.878 189.033 298.019 188.706 298.128C188.379 298.237 179.787 296.851 179.787 296.851L183.474 277.143" fill="#0043DC"/>
</g>
<path fill-rule="evenodd" clip-rule="evenodd" d="M217.693 264.582L180.171 299.15L177.08 295.791L214.605 261.212C215.225 260.641 216.109 260.459 216.904 260.737C217.699 261.016 218.276 261.71 218.404 262.543V262.543C218.522 263.299 218.256 264.064 217.693 264.582Z" stroke="#3D3D3C" stroke-width="1.1889" stroke-linecap="round" stroke-linejoin="round"/>
<ellipse cx="88.5246" cy="387.587" rx="6.61209" ry="6.63022" fill="#4F4F5B" stroke="#3D3D3C" stroke-width="1.1889" stroke-linecap="round" stroke-linejoin="round"/>
<path d="M97.7905 378.934L88.2429 379.267C88.2429 379.267 90.7369 382.552 88.6085 385.274C87.6047 385.235 86.69 385.847 86.3437 386.79C85.9975 387.733 86.2987 388.792 87.0895 389.411C87.8803 390.031 88.9803 390.07 89.813 389.508C90.6457 388.946 91.0211 387.911 90.7425 386.946L97.7905 378.934Z" fill="#4F4F5B" stroke="#3D3D3C" stroke-width="1.1889" stroke-linecap="round" stroke-linejoin="round"/>
<path d="M88.671 380.596C89.9719 382.011 91.7832 382.851 93.7043 382.928C95.6255 383.006 97.4984 382.315 98.9092 381.008L184.239 302.06C187.18 299.336 187.364 294.746 184.65 291.794L175.447 281.793L79.468 370.594L88.671 380.596Z" fill="#4F4F5B"/>
<mask id="mask19_0_15" style="mask-type:luminance" maskUnits="userSpaceOnUse" x="79" y="281" width="108" height="102">
<path fill-rule="evenodd" clip-rule="evenodd" d="M88.671 380.595C89.9719 382.011 91.7832 382.851 93.7043 382.928C95.6255 383.006 97.4984 382.315 98.9092 381.008L184.239 302.06C187.18 299.336 187.364 294.746 184.65 291.794L175.447 281.793L79.468 370.594L88.671 380.595Z" fill="white"/>
</mask>
<g mask="url(#mask19_0_15)">
<path d="M68.8226 359.025C115.124 396.424 177.25 295.429 184.65 291.794C192.051 288.159 182.559 325.409 182.559 325.409L130.239 360.999L105.242 404.149L66.9021 399.889L63.967 354.837" fill="#0043DC"/>
</g>
<path fill-rule="evenodd" clip-rule="evenodd" d="M88.671 380.596C89.9719 382.011 91.7832 382.851 93.7043 382.928C95.6255 383.006 97.4984 382.315 98.9092 381.008L184.239 302.06C187.18 299.336 187.364 294.746 184.65 291.794L175.447 281.793L79.468 370.594L88.671 380.596Z" stroke="#3D3D3C" stroke-width="1.1889" stroke-linecap="round" stroke-linejoin="round"/>
<path d="M164.802 270.223C163.501 268.808 161.69 267.968 159.768 267.891C157.847 267.813 155.974 268.504 154.564 269.81L69.2342 348.759C66.2932 351.483 66.1092 356.073 68.8225 359.025L78.0255 369.026L174.005 280.225L164.802 270.223Z" fill="#4F4F5B" stroke="#3D3D3C" stroke-width="1.1889" stroke-linecap="round" stroke-linejoin="round"/>
<path d="M78.0254 369.026L79.468 370.594L175.447 281.792L174.005 280.225L78.0254 369.026Z" fill="#0043DC" stroke="#3D3D3C" stroke-width="1.1889" stroke-linecap="round" stroke-linejoin="round"/>
<path d="M141.037 288.838C140.486 290.379 139.591 291.774 138.421 292.918" stroke="#3D3D3C" stroke-width="1.1889" stroke-linecap="round" stroke-linejoin="round"/>
<path d="M109.635 350.619L104.694 356.157" stroke="#3D3D3C" stroke-width="1.1889" stroke-linecap="round" stroke-linejoin="round"/>
</g>
</svg>
